<svg width="512" height="512" viewBox="0 0 512 512" fill="none" xmlns="http://www.w3.org/2000/svg">
  <defs>
    <linearGradient id="bg" x1="76" y1="54" x2="436" y2="466" gradientUnits="userSpaceOnUse">
      <stop stop-color="#050709"/>
      <stop offset="0.55" stop-color="#10141B"/>
      <stop offset="1" stop-color="#1A2330"/>
    </linearGradient>
    <linearGradient id="stroke" x1="86" y1="76" x2="426" y2="434" gradientUnits="userSpaceOnUse">
      <stop stop-color="#FFDD84"/>
      <stop offset="1" stop-color="#C98A06"/>
    </linearGradient>
    <linearGradient id="ring" x1="148" y1="116" x2="364" y2="392" gradientUnits="userSpaceOnUse">
      <stop stop-color="#37C7FF"/>
      <stop offset="1" stop-color="#2A7CB4"/>
    </linearGradient>
    <linearGradient id="monogram" x1="170" y1="166" x2="340" y2="348" gradientUnits="userSpaceOnUse">
      <stop stop-color="#FFE7A8"/>
      <stop offset="1" stop-color="#F7B72A"/>
    </linearGradient>
  </defs>

  <rect x="44" y="44" width="424" height="424" rx="104" fill="url(#bg)"/>
  <rect x="60" y="60" width="392" height="392" rx="90" stroke="url(#stroke)" stroke-width="20"/>

  <path d="M372 170C332 124 270 103 209 115C151 127 105 169 91 227" stroke="url(#ring)" stroke-width="16" stroke-linecap="round"/>
  <path d="M140 338C179 386 243 410 304 396C362 384 408 341 421 284" stroke="url(#ring)" stroke-width="16" stroke-linecap="round"/>

  <path d="M162 152H212V318H308V360H162V152Z" fill="url(#monogram)"/>
  <path d="M246 152H319C360 152 392 182 392 220C392 246 377 269 355 279C379 287 397 310 397 340C397 382 363 414 319 414H246V152ZM296 197V260H319C335 260 347 246 347 229C347 211 334 197 319 197H296ZM296 302V369H319C337 369 352 354 352 335C352 316 337 302 319 302H296Z" fill="url(#monogram)"/>

  <circle cx="420" cy="124" r="11" fill="#37C7FF"/>
  <circle cx="96" cy="388" r="9" fill="#37C7FF" fill-opacity="0.86"/>
</svg>
